<svg width="525" height="122" viewBox="0 0 525 122" fill="none" xmlns="http://www.w3.org/2000/svg">
<path fill-rule="evenodd" clip-rule="evenodd" d="M111.023 37.1826C103.869 42.6349 99.255 51.2265 99.255 60.8914C99.255 71.278 104.584 80.425 112.667 85.7683C113.529 86.3791 115.27 87.6531 115.335 87.8632C119.238 91.4216 121.685 96.5375 121.685 102.223C121.685 112.972 112.937 121.685 102.144 121.685C96.8261 121.685 92.004 119.569 88.4806 116.136C87.3824 115.066 86.5002 113.8 85.6435 112.53L85.0222 111.609C79.4203 104.629 70.7584 99.6701 60.81 99.6701C51.5128 99.6701 42.2813 104.141 36.7309 111.539C36.5998 111.699 36.4689 111.86 36.3378 112.02C34.6124 114.133 32.8689 116.268 30.6675 117.874C30.2579 118.173 29.7652 118.516 29.1398 118.937C26.2675 120.591 23.0967 121.685 19.5408 121.685C8.74872 121.685 0 112.972 0 102.223C0 95.9567 2.97315 90.3822 7.59105 86.8225C7.63883 86.7856 7.69002 86.7472 7.74403 86.7076C8.25215 86.3346 8.77449 85.9799 9.29666 85.6252C10.3177 84.9316 11.3382 84.2385 12.2507 83.4107C18.3593 77.8684 22.2018 69.5488 22.2018 60.7288C22.2018 50.6922 17.226 41.813 9.59737 36.4049L8.62573 35.7707C3.42202 32.274 0 26.3476 0 19.6251C0 8.87625 8.74872 0.162594 19.5408 0.162594C23.793 0.162594 27.728 1.51533 30.9356 3.81229C33.1311 5.38454 34.8144 7.55637 36.47 9.69264C36.5585 9.80674 36.6468 9.92074 36.7352 10.0345C42.1933 17.3631 50.9448 22.1128 60.81 22.1128C69.8256 22.1128 77.9109 18.1461 83.4026 11.8694C84.1562 11.008 84.8299 10.0823 85.5036 9.15635C86.1046 8.33053 86.7056 7.5046 87.3634 6.72422C87.4984 6.56416 87.6276 6.41741 87.746 6.29206C91.31 2.51876 96.3693 0.162594 101.981 0.162594C112.773 0.162594 121.522 8.87625 121.522 19.6251C121.522 23.7531 120.232 27.5809 118.031 30.7302C117.309 31.7637 115.576 33.4301 115.293 33.7006C115.266 33.7265 115.24 33.7511 115.213 33.7769C114.039 34.8902 112.748 35.8712 111.459 36.851C111.313 36.9615 111.168 37.0719 111.023 37.1826ZM60.81 76.094C69.2399 76.094 76.0737 69.2875 76.0737 60.8914C76.0737 52.4953 69.2399 45.6889 60.81 45.6889C52.3801 45.6889 45.5463 52.4953 45.5463 60.8914C45.5463 69.2875 52.3801 76.094 60.81 76.094Z" fill="#800000"/>
<path d="M121.62 18.3731C121.62 28.5203 113.361 36.7462 103.173 36.7462C92.9849 36.7462 84.7259 28.5203 84.7259 18.3731C84.7259 8.22592 92.9849 0 103.173 0C113.361 0 121.62 8.22592 121.62 18.3731Z" fill="#E31A37"/>
<path d="M36.8941 103.085C36.8941 113.232 28.6351 121.458 18.4471 121.458C8.25903 121.458 0 113.232 0 103.085C0 92.9374 8.25903 84.7114 18.4471 84.7114C28.6351 84.7114 36.8941 92.9374 36.8941 103.085Z" fill="#E31A37"/>
<path fill-rule="evenodd" clip-rule="evenodd" d="M116.105 115.802C109.264 122.616 98.2603 122.703 91.5276 115.997C88.123 112.606 87.2332 107.568 86.3809 102.743C86.2448 101.973 86.1097 101.208 85.9655 100.456C85.4725 97.8855 84.9243 95.0213 84.4149 92.3458C83.3257 86.6256 78.3662 81.6859 72.623 80.6011C69.9366 80.0937 67.0609 79.5477 64.4801 79.0567C63.7252 78.913 62.9573 78.7785 62.184 78.643C57.3391 77.7941 52.281 76.9078 48.8764 73.5169L48.1337 72.7772C44.7291 69.3863 43.8393 64.3485 42.987 59.5231C42.8509 58.7529 42.7158 57.9879 42.5716 57.2361C42.0786 54.6657 41.5304 51.8014 41.021 49.1259C39.9318 43.4057 34.9723 38.4661 29.2291 37.3813C26.5427 36.8738 23.667 36.3279 21.0862 35.8368C20.3313 35.6932 19.5634 35.5586 18.7901 35.4231C13.9452 34.5742 8.8871 33.688 5.48253 30.2971C-1.25025 23.5913 -1.16258 12.6317 5.67836 5.81819C12.5193 -0.995321 23.523 -1.08265 30.2558 5.62315C33.6603 9.01406 34.5501 14.0518 35.4024 18.8773C35.5385 19.6475 35.6736 20.4125 35.8178 21.1643C36.3108 23.7347 36.859 26.5989 37.3685 29.2745C38.4576 34.9947 43.4172 39.9343 49.1604 41.0191C51.8467 41.5265 54.7224 42.0725 57.3032 42.5636C58.0581 42.7072 58.826 42.8417 59.5993 42.9772C64.4442 43.8261 69.5023 44.7124 72.9069 48.1033L73.6496 48.843C77.0542 52.2339 77.944 57.2717 78.7963 62.0972C78.9324 62.8673 79.0675 63.6324 79.2117 64.3842C79.7047 66.9546 80.2529 69.8188 80.7623 72.4944C81.8515 78.2145 86.811 83.1542 92.5542 84.239C95.2406 84.7464 98.1163 85.2924 100.697 85.7834C101.452 85.927 102.22 86.0616 102.993 86.1971C107.838 87.046 112.896 87.9323 116.301 91.3232C123.034 98.029 122.946 108.989 116.105 115.802ZM64.7611 63.5276C64.7611 62.3231 65.4541 61.2525 66.3272 60.4228C67.8134 59.0104 68.7395 57.0182 68.7395 54.8106C68.7395 50.5271 65.253 47.0547 60.9523 47.0547C56.6516 47.0547 53.1652 50.5271 53.1652 54.8106C53.1652 56.9849 54.0635 58.9502 55.5106 60.3585C56.3596 61.1847 57.0308 62.2415 57.0308 63.4261V70.7193C57.0308 72.8454 58.7613 74.5689 60.8959 74.5689C63.0306 74.5689 64.7611 72.8454 64.7611 70.7193V63.5276Z" fill="#E31A37"/>
<path d="M201.745 46.0148L192.202 47.705C191.803 46.4843 191.169 45.3222 190.301 44.2189C189.456 43.1156 188.305 42.2118 186.85 41.5075C185.394 40.8032 183.575 40.4511 181.392 40.4511C178.41 40.4511 175.922 41.1202 173.927 42.4583C171.931 43.7729 170.934 45.4748 170.934 47.5641C170.934 49.3717 171.603 50.8272 172.941 51.9305C174.279 53.0339 176.439 53.9377 179.42 54.6419L188.012 56.6139C192.989 57.7642 196.698 59.5365 199.139 61.931C201.581 64.3255 202.801 67.436 202.801 71.2625C202.801 74.5021 201.862 77.3895 199.984 79.9249C198.13 82.4367 195.536 84.4086 192.202 85.8406C188.892 87.2726 185.054 87.9886 180.688 87.9886C174.631 87.9886 169.689 86.6975 165.863 84.1152C162.036 81.5094 159.689 77.8121 158.82 73.0231L168.997 71.4737C169.631 74.1265 170.934 76.1336 172.906 77.4952C174.877 78.8333 177.448 79.5023 180.617 79.5023C184.068 79.5023 186.826 78.7863 188.892 77.3543C190.958 75.8988 191.991 74.1265 191.991 72.0371C191.991 70.3469 191.357 68.9267 190.089 67.7764C188.845 66.6261 186.932 65.7575 184.35 65.1706L175.194 63.1635C170.147 62.0132 166.415 60.1821 163.997 57.6703C161.602 55.1584 160.405 51.9775 160.405 48.1275C160.405 44.9349 161.297 42.1413 163.081 39.7469C164.865 37.3524 167.33 35.4861 170.476 34.148C173.621 32.7864 177.225 32.1056 181.286 32.1056C187.132 32.1056 191.733 33.3733 195.09 35.9086C198.447 38.4205 200.665 41.7892 201.745 46.0148Z" fill="#800000"/>
<path d="M237.689 87.9886C232.36 87.9886 227.77 86.8501 223.92 84.573C220.094 82.2724 217.136 79.0445 215.047 74.8894C212.981 70.7108 211.948 65.8162 211.948 60.2056C211.948 54.6654 212.981 49.7826 215.047 45.557C217.136 41.3314 220.047 38.0332 223.779 35.6621C227.535 33.2911 231.925 32.1056 236.949 32.1056C240.001 32.1056 242.959 32.6104 245.823 33.6198C248.687 34.6292 251.257 36.2138 253.534 38.3735C255.812 40.5333 257.607 43.3386 258.922 46.7894C260.237 50.2168 260.894 54.3837 260.894 59.2901V63.0226H217.899V55.1349H250.577C250.577 52.3648 250.013 49.9117 248.886 47.7754C247.759 45.6157 246.175 43.9137 244.133 42.6695C242.114 41.4253 239.743 40.8032 237.02 40.8032C234.062 40.8032 231.479 41.531 229.273 42.9864C227.089 44.4184 225.399 46.2965 224.202 48.6205C223.028 50.9211 222.441 53.4212 222.441 56.1209V62.2832C222.441 65.8984 223.075 68.9736 224.343 71.509C225.634 74.0443 227.43 75.981 229.73 77.3191C232.031 78.6337 234.719 79.291 237.794 79.291C239.79 79.291 241.609 79.0093 243.252 78.4459C244.895 77.859 246.316 76.9904 247.513 75.8401C248.71 74.6899 249.626 73.2696 250.26 71.5794L260.225 73.3752C259.427 76.3097 257.995 78.8802 255.929 81.0869C253.887 83.2701 251.316 84.972 248.217 86.1928C245.142 87.39 241.632 87.9886 237.689 87.9886Z" fill="#800000"/>
<path d="M295.359 87.9886C290.124 87.9886 285.616 86.8031 281.837 84.4321C278.081 82.0376 275.193 78.7394 273.174 74.5373C271.156 70.3352 270.146 65.5227 270.146 60.1C270.146 54.6067 271.179 49.7591 273.245 45.557C275.311 41.3314 278.222 38.0332 281.978 35.6621C285.734 33.2911 290.159 32.1056 295.253 32.1056C299.361 32.1056 303.023 32.8686 306.239 34.3945C309.456 35.8969 312.05 38.0097 314.021 40.7328C316.017 43.456 317.202 46.6369 317.578 50.2755H307.331C306.768 47.7402 305.476 45.557 303.458 43.7259C301.462 41.8948 298.786 40.9793 295.429 40.9793C292.495 40.9793 289.924 41.754 287.717 43.3034C285.534 44.8293 283.832 47.0125 282.612 49.853C281.391 52.67 280.78 56.0035 280.78 59.8535C280.78 63.7973 281.379 67.2012 282.576 70.0652C283.774 72.9292 285.464 75.1476 287.647 76.7205C289.854 78.2933 292.448 79.0797 295.429 79.0797C297.424 79.0797 299.232 78.7159 300.852 77.9881C302.495 77.2369 303.868 76.1688 304.972 74.7838C306.099 73.3987 306.885 71.732 307.331 69.7835H317.578C317.202 73.2813 316.064 76.4036 314.162 79.1502C312.261 81.8968 309.714 84.0565 306.521 85.6294C303.352 87.2022 299.631 87.9886 295.359 87.9886Z" fill="#800000"/>
<path d="M363.1 64.4664V32.8099H373.663V86.897H363.311V77.5304H362.747C361.503 80.4178 359.508 82.8241 356.761 84.749C354.038 86.6505 350.646 87.6013 346.585 87.6013C343.11 87.6013 340.035 86.8383 337.359 85.3124C334.706 83.7631 332.617 81.4742 331.091 78.4459C329.589 75.4176 328.837 71.6733 328.837 67.213V32.8099H339.366V65.9453C339.366 69.6309 340.387 72.5653 342.43 74.7485C344.472 76.9318 347.125 78.0234 350.388 78.0234C352.36 78.0234 354.32 77.5304 356.268 76.5444C358.24 75.5584 359.872 74.0678 361.163 72.0724C362.477 70.077 363.123 67.5416 363.1 64.4664Z" fill="#800000"/>
<path d="M387.81 86.897V32.8099H397.987V41.4019H398.55C399.536 38.4909 401.273 36.2021 403.762 34.5353C406.274 32.8451 409.114 32 412.283 32C412.941 32 413.715 32.0235 414.607 32.0704C415.523 32.1174 416.239 32.1761 416.755 32.2465V42.3174C416.333 42.2 415.582 42.0709 414.502 41.9301C413.422 41.7657 412.342 41.6836 411.262 41.6836C408.774 41.6836 406.555 42.2118 404.607 43.2682C402.682 44.3011 401.156 45.7448 400.029 47.5993C398.902 49.4304 398.339 51.5197 398.339 53.8673V86.897H387.81Z" fill="#800000"/>
<path d="M447.241 87.9886C441.912 87.9886 437.323 86.8501 433.473 84.573C429.646 82.2724 426.688 79.0445 424.599 74.8894C422.533 70.7108 421.5 65.8162 421.5 60.2056C421.5 54.6654 422.533 49.7826 424.599 45.557C426.688 41.3314 429.599 38.0332 433.332 35.6621C437.088 33.2911 441.478 32.1056 446.501 32.1056C449.553 32.1056 452.511 32.6104 455.375 33.6198C458.239 34.6292 460.81 36.2138 463.087 38.3735C465.364 40.5333 467.16 43.3386 468.474 46.7894C469.789 50.2168 470.446 54.3837 470.446 59.2901V63.0226H427.451V55.1349H460.129C460.129 52.3648 459.565 49.9117 458.439 47.7754C457.312 45.6157 455.727 43.9137 453.685 42.6695C451.666 41.4253 449.295 40.8032 446.572 40.8032C443.614 40.8032 441.032 41.531 438.825 42.9864C436.642 44.4184 434.952 46.2965 433.754 48.6205C432.581 50.9211 431.994 53.4212 431.994 56.1209V62.2832C431.994 65.8984 432.628 68.9736 433.895 71.509C435.186 74.0443 436.982 75.981 439.283 77.3191C441.583 78.6337 444.271 79.291 447.347 79.291C449.342 79.291 451.161 79.0093 452.805 78.4459C454.448 77.859 455.868 76.9904 457.065 75.8401C458.263 74.6899 459.178 73.2696 459.812 71.5794L469.777 73.3752C468.979 76.3097 467.547 78.8802 465.481 81.0869C463.439 83.2701 460.868 84.972 457.77 86.1928C454.694 87.39 451.185 87.9886 447.241 87.9886Z" fill="#800000"/>
<path d="M489.18 32.8099L501.117 53.8673L513.16 32.8099H524.674L507.807 59.8535L524.815 86.897H513.3L501.117 66.6848L488.968 86.897H477.418L494.25 59.8535L477.63 32.8099H489.18Z" fill="#800000"/>
</svg>
