<svg width="143" height="43" viewBox="0 0 143 43" fill="none" xmlns="http://www.w3.org/2000/svg">
<path fill-rule="evenodd" clip-rule="evenodd" d="M34.1432 14.7611C32.2654 16.1924 31.0542 18.4477 31.0542 20.9847C31.0542 23.7111 32.453 26.1122 34.5748 27.5148C34.8011 27.6751 35.258 28.0096 35.2752 28.0647C36.2997 28.9988 36.9421 30.3417 36.9421 31.8341C36.9421 34.6557 34.6456 36.943 31.8127 36.943C30.4166 36.943 29.1509 36.3875 28.226 35.4863C27.9377 35.2055 27.7061 34.8731 27.4812 34.5397L27.3181 34.298C25.8477 32.4658 23.5739 31.164 20.9625 31.164C18.522 31.164 16.0988 32.3377 14.6418 34.2797C14.6074 34.3217 14.573 34.3638 14.5386 34.4059C14.0857 34.9605 13.628 35.5209 13.0501 35.9426C12.9426 36.0211 12.8133 36.1111 12.6491 36.2217C11.8952 36.6556 11.0628 36.943 10.1294 36.943C7.29652 36.943 5 34.6557 5 31.8341C5 30.1893 5.78045 28.726 6.99263 27.7915C7.00518 27.7819 7.01862 27.7718 7.03279 27.7614C7.16617 27.6635 7.30328 27.5704 7.44035 27.4773C7.70839 27.2952 7.97626 27.1133 8.21577 26.896C9.81927 25.4411 10.8279 23.2572 10.8279 20.942C10.8279 18.3074 9.5218 15.9766 7.51929 14.557L7.26424 14.3905C5.89827 13.4727 5 11.917 5 10.1523C5 7.33078 7.29652 5.04346 10.1294 5.04346C11.2456 5.04346 12.2785 5.39855 13.1205 6.0015C13.6969 6.41421 14.1387 6.98431 14.5733 7.54508C14.5965 7.57503 14.6197 7.60496 14.6429 7.63483C16.0757 9.55857 18.3729 10.8053 20.9625 10.8053C23.3291 10.8053 25.4514 9.76409 26.893 8.11646C27.0908 7.89037 27.2677 7.64735 27.4445 7.40431C27.6023 7.18753 27.76 6.97072 27.9327 6.76587C27.9681 6.72386 28.0021 6.68534 28.0331 6.65243C28.9687 5.66195 30.2967 5.04346 31.7699 5.04346C34.6028 5.04346 36.8993 7.33078 36.8993 10.1523C36.8993 11.2359 36.5606 12.2407 35.9829 13.0674C35.7933 13.3387 35.3386 13.7761 35.2641 13.8471C35.257 13.8539 35.2502 13.8604 35.243 13.8672C34.9349 14.1594 34.596 14.4169 34.2576 14.6741C34.2195 14.7031 34.1813 14.7321 34.1432 14.7611ZM20.9625 24.9753C23.1753 24.9753 24.9692 23.1887 24.9692 20.9847C24.9692 18.7807 23.1753 16.994 20.9625 16.994C18.7497 16.994 16.9558 18.7807 16.9558 20.9847C16.9558 23.1887 18.7497 24.9753 20.9625 24.9753Z" fill="#F2F2F2"/>
<g filter="url(#filter0_dd_216_1541)">
<ellipse cx="32.0806" cy="9.82291" rx="4.84231" ry="4.82291" fill="white"/>
<ellipse cx="9.84231" cy="32.0597" rx="4.84231" ry="4.82291" fill="white"/>
<path fill-rule="evenodd" clip-rule="evenodd" d="M35.4777 35.3976C33.6819 37.1861 30.7935 37.209 29.0261 35.4487C28.1325 34.5586 27.8989 33.2362 27.6751 31.9695C27.6394 31.7674 27.604 31.5666 27.5661 31.3692C27.4367 30.6945 27.2928 29.9426 27.1591 29.2403C26.8732 27.7388 25.5713 26.4421 24.0637 26.1574C23.3586 26.0242 22.6037 25.8808 21.9262 25.7519C21.7281 25.7142 21.5265 25.6789 21.3235 25.6434C20.0517 25.4205 18.724 25.1879 17.8303 24.2978L17.6353 24.1036C16.7416 23.2135 16.5081 21.8911 16.2843 20.6244C16.2486 20.4222 16.2132 20.2214 16.1753 20.0241C16.0459 19.3493 15.902 18.5975 15.7683 17.8952C15.4824 16.3936 14.1805 15.097 12.6729 14.8122C11.9678 14.679 11.2129 14.5357 10.5354 14.4068C10.3373 14.3691 10.1357 14.3338 9.9327 14.2982C8.66093 14.0754 7.33319 13.8427 6.4395 12.9526C4.67216 11.1924 4.69517 8.31549 6.49091 6.52695C8.28664 4.73842 11.1751 4.71549 12.9424 6.47576C13.8361 7.36587 14.0697 8.68828 14.2934 9.95495C14.3291 10.1571 14.3646 10.3579 14.4024 10.5553C14.5319 11.23 14.6758 11.9819 14.8095 12.6842C15.0954 14.1857 16.3973 15.4824 17.9048 15.7671C18.61 15.9003 19.3649 16.0437 20.0423 16.1726C20.2405 16.2103 20.442 16.2456 20.645 16.2811C21.9168 16.504 23.2446 16.7366 24.1383 17.6267L24.3332 17.8209C25.2269 18.711 25.4605 20.0334 25.6842 21.3001C25.7199 21.5023 25.7554 21.7031 25.7933 21.9004C25.9227 22.5752 26.0666 23.327 26.2003 24.0293C26.4862 25.5309 27.7881 26.8275 29.2956 27.1123C30.0008 27.2455 30.7557 27.3888 31.4331 27.5177C31.6313 27.5554 31.8328 27.5907 32.0358 27.6263C33.3076 27.8491 34.6354 28.0818 35.5291 28.9719C37.2964 30.7321 37.2734 33.609 35.4777 35.3976ZM22 22.3201C22 21.6059 22.4618 20.9792 22.8013 20.351C22.9563 20.0641 23.0443 19.736 23.0443 19.3874C23.0443 18.263 22.1291 17.3515 21.0002 17.3515C19.8713 17.3515 18.9561 18.263 18.9561 19.3874C18.9561 19.7317 19.0419 20.056 19.1934 20.3403C19.5236 20.9602 19.9708 21.5788 19.9708 22.2812V23.5634C19.9708 24.1215 20.4251 24.5739 20.9854 24.5739C21.5457 24.5739 22 24.1215 22 23.5634V22.3201Z" fill="white"/>
</g>
<path d="M58.1938 17.6629L55.6887 18.1065C55.584 17.7861 55.4176 17.4811 55.1896 17.1914C54.9677 16.9018 54.6658 16.6645 54.2837 16.4797C53.9016 16.2948 53.4241 16.2024 52.8509 16.2024C52.0683 16.2024 51.4151 16.378 50.8913 16.7292C50.3675 17.0743 50.1056 17.5211 50.1056 18.0696C50.1056 18.5441 50.2812 18.9261 50.6325 19.2158C50.9837 19.5054 51.5507 19.7427 52.3333 19.9275L54.5887 20.4452C55.8952 20.7471 56.8688 21.2124 57.5097 21.841C58.1506 22.4695 58.4711 23.2861 58.4711 24.2905C58.4711 25.1409 58.2246 25.8989 57.7316 26.5645C57.2448 27.2238 56.5638 27.7415 55.6887 28.1174C54.8198 28.4933 53.8123 28.6813 52.6661 28.6813C51.0762 28.6813 49.779 28.3423 48.7745 27.6645C47.77 26.9804 47.1538 26.0098 46.9258 24.7527L49.5972 24.346C49.7636 25.0423 50.1056 25.5692 50.6232 25.9267C51.1409 26.2779 51.8157 26.4535 52.6476 26.4535C53.5535 26.4535 54.2775 26.2656 54.8198 25.8897C55.3621 25.5076 55.6333 25.0423 55.6333 24.4939C55.6333 24.0502 55.4669 23.6774 55.1341 23.3754C54.8075 23.0735 54.3053 22.8454 53.6274 22.6914L51.2241 22.1645C49.8991 21.8625 48.9193 21.3819 48.2846 20.7225C47.656 20.0631 47.3417 19.2281 47.3417 18.2175C47.3417 17.3794 47.5759 16.6461 48.0443 16.0175C48.5126 15.3889 49.1597 14.899 49.9854 14.5477C50.8112 14.1903 51.7571 14.0116 52.8232 14.0116C54.3577 14.0116 55.5655 14.3444 56.4467 15.0099C57.3279 15.6693 57.9103 16.5536 58.1938 17.6629Z" fill="#F2F2F2"/>
<path d="M67.6292 28.6813C66.2303 28.6813 65.0256 28.3824 64.0149 27.7846C63.0105 27.1807 62.234 26.3334 61.6855 25.2426C61.1433 24.1457 60.8721 22.8609 60.8721 21.388C60.8721 19.9337 61.1433 18.6519 61.6855 17.5427C62.234 16.4334 62.9981 15.5676 63.978 14.9452C64.9639 14.3228 66.1163 14.0116 67.4351 14.0116C68.2362 14.0116 69.0127 14.1441 69.7645 14.4091C70.5163 14.6741 71.1911 15.09 71.7888 15.657C72.3866 16.2239 72.858 16.9603 73.2031 17.8662C73.5482 18.7659 73.7207 19.8598 73.7207 21.1477V22.1275H62.4343V20.057H71.0124C71.0124 19.3298 70.8645 18.6858 70.5687 18.125C70.2729 17.5581 69.8569 17.1113 69.3208 16.7847C68.7908 16.4581 68.1684 16.2948 67.4536 16.2948C66.6771 16.2948 65.9992 16.4858 65.42 16.8679C64.8469 17.2438 64.4032 17.7368 64.0889 18.3469C63.7808 18.9508 63.6267 19.6071 63.6267 20.3158V21.9334C63.6267 22.8824 63.7931 23.6897 64.1259 24.3552C64.4648 25.0208 64.9362 25.5292 65.5401 25.8804C66.1441 26.2255 66.8496 26.3981 67.6569 26.3981C68.1807 26.3981 68.6583 26.3241 69.0897 26.1762C69.5211 26.0222 69.8939 25.7942 70.2082 25.4922C70.5225 25.1902 70.7628 24.8174 70.9292 24.3737L73.5451 24.8451C73.3356 25.6155 72.9597 26.2902 72.4174 26.8695C71.8813 27.4426 71.2065 27.8894 70.393 28.2098C69.5858 28.5241 68.6645 28.6813 67.6292 28.6813Z" fill="#F2F2F2"/>
<path d="M82.7679 28.6813C81.3937 28.6813 80.2105 28.3701 79.2184 27.7476C78.2324 27.1191 77.4744 26.2533 76.9445 25.1502C76.4145 24.0471 76.1495 22.7838 76.1495 21.3603C76.1495 19.9183 76.4207 18.6458 76.9629 17.5427C77.5052 16.4334 78.2694 15.5676 79.2554 14.9452C80.2414 14.3228 81.403 14.0116 82.7402 14.0116C83.8186 14.0116 84.78 14.2119 85.6242 14.6125C86.4685 15.0068 87.1494 15.5615 87.6671 16.2763C88.1909 16.9911 88.5021 17.8262 88.6007 18.7813H85.9108C85.7629 18.1158 85.4239 17.5427 84.894 17.062C84.3702 16.5813 83.6677 16.341 82.7864 16.341C82.0161 16.341 81.3413 16.5444 80.7621 16.9511C80.189 17.3516 79.7422 17.9248 79.4218 18.6704C79.1013 19.4099 78.9411 20.285 78.9411 21.2956C78.9411 22.3309 79.0982 23.2244 79.4125 23.9762C79.7268 24.7281 80.1705 25.3104 80.7436 25.7233C81.3229 26.1362 82.0038 26.3426 82.7864 26.3426C83.3102 26.3426 83.7847 26.2471 84.21 26.0561C84.6413 25.8589 85.0018 25.5785 85.2915 25.2149C85.5873 24.8513 85.7937 24.4138 85.9108 23.9023H88.6007C88.5021 24.8205 88.2032 25.6401 87.704 26.3611C87.2049 27.0821 86.5363 27.649 85.6982 28.0619C84.8663 28.4748 83.8895 28.6813 82.7679 28.6813Z" fill="#F2F2F2"/>
<path d="M100.55 22.5065V14.1965H103.323V28.3947H100.606V25.9359H100.458C100.131 26.6939 99.6075 27.3255 98.8865 27.8308C98.1717 28.33 97.2812 28.5796 96.2151 28.5796C95.3031 28.5796 94.4958 28.3793 93.7933 27.9787C93.0969 27.572 92.5485 26.9712 92.1479 26.1762C91.7535 25.3813 91.5563 24.3984 91.5563 23.2275V14.1965H94.3202V22.8947C94.3202 23.8622 94.5882 24.6325 95.1244 25.2057C95.6605 25.7788 96.3568 26.0653 97.2134 26.0653C97.7311 26.0653 98.2456 25.9359 98.7571 25.6771C99.2748 25.4183 99.703 25.0269 100.042 24.5031C100.387 23.9793 100.557 23.3138 100.55 22.5065Z" fill="#F2F2F2"/>
<path d="M107.037 28.3947V14.1965H109.708V16.4519H109.856C110.115 15.6878 110.571 15.087 111.224 14.6494C111.884 14.2057 112.629 13.9839 113.461 13.9839C113.634 13.9839 113.837 13.99 114.071 14.0024C114.312 14.0147 114.5 14.0301 114.635 14.0486V16.6923C114.524 16.6615 114.327 16.6276 114.044 16.5906C113.76 16.5475 113.477 16.5259 113.193 16.5259C112.54 16.5259 111.958 16.6645 111.446 16.9418C110.941 17.213 110.54 17.592 110.245 18.0788C109.949 18.5595 109.801 19.1079 109.801 19.7242V28.3947H107.037Z" fill="#F2F2F2"/>
<path d="M122.638 28.6813C121.239 28.6813 120.034 28.3824 119.024 27.7846C118.019 27.1807 117.243 26.3334 116.694 25.2426C116.152 24.1457 115.881 22.8609 115.881 21.388C115.881 19.9337 116.152 18.6519 116.694 17.5427C117.243 16.4334 118.007 15.5676 118.987 14.9452C119.973 14.3228 121.125 14.0116 122.444 14.0116C123.245 14.0116 124.021 14.1441 124.773 14.4091C125.525 14.6741 126.2 15.09 126.798 15.657C127.395 16.2239 127.867 16.9603 128.212 17.8662C128.557 18.7659 128.73 19.8598 128.73 21.1477V22.1275H117.443V20.057H126.021C126.021 19.3298 125.873 18.6858 125.577 18.125C125.282 17.5581 124.866 17.1113 124.33 16.7847C123.8 16.4581 123.177 16.2948 122.462 16.2948C121.686 16.2948 121.008 16.4858 120.429 16.8679C119.856 17.2438 119.412 17.7368 119.098 18.3469C118.79 18.9508 118.636 19.6071 118.636 20.3158V21.9334C118.636 22.8824 118.802 23.6897 119.135 24.3552C119.474 25.0208 119.945 25.5292 120.549 25.8804C121.153 26.2255 121.858 26.3981 122.666 26.3981C123.19 26.3981 123.667 26.3241 124.099 26.1762C124.53 26.0222 124.903 25.7942 125.217 25.4922C125.531 25.1902 125.772 24.8174 125.938 24.3737L128.554 24.8451C128.344 25.6155 127.969 26.2902 127.426 26.8695C126.89 27.4426 126.215 27.8894 125.402 28.2098C124.595 28.5241 123.673 28.6813 122.638 28.6813Z" fill="#F2F2F2"/>
<path d="M133.647 14.1965L136.781 19.7242L139.942 14.1965H142.965L138.537 21.2956L143.002 28.3947H139.979L136.781 23.0889L133.592 28.3947H130.56L134.978 21.2956L130.615 14.1965H133.647Z" fill="#F2F2F2"/>
<defs>
<filter id="filter0_dd_216_1541" x="0.000834465" y="0.715001" width="41.9202" height="41.8811" filterUnits="userSpaceOnUse" color-interpolation-filters="sRGB">
<feFlood flood-opacity="0" result="BackgroundImageFix"/>
<feColorMatrix in="SourceAlpha" type="matrix" values="0 0 0 0 0 0 0 0 0 0 0 0 0 0 0 0 0 0 127 0" result="hardAlpha"/>
<feOffset dy="0.714167"/>
<feGaussianBlur stdDeviation="2.49958"/>
<feComposite in2="hardAlpha" operator="out"/>
<feColorMatrix type="matrix" values="0 0 0 0 0.290196 0 0 0 0 0.227451 0 0 0 0 1 0 0 0 0.06 0"/>
<feBlend mode="normal" in2="BackgroundImageFix" result="effect1_dropShadow_216_1541"/>
<feColorMatrix in="SourceAlpha" type="matrix" values="0 0 0 0 0 0 0 0 0 0 0 0 0 0 0 0 0 0 127 0" result="hardAlpha"/>
<feOffset dy="0.328732"/>
<feGaussianBlur stdDeviation="0.657464"/>
<feComposite in2="hardAlpha" operator="out"/>
<feColorMatrix type="matrix" values="0 0 0 0 0.078875 0 0 0 0 0.0770833 0 0 0 0 0.166667 0 0 0 0.04 0"/>
<feBlend mode="normal" in2="effect1_dropShadow_216_1541" result="effect2_dropShadow_216_1541"/>
<feBlend mode="normal" in="SourceGraphic" in2="effect2_dropShadow_216_1541" result="shape"/>
</filter>
</defs>
</svg>
