<svg width="246" height="246" viewBox="0 0 246 246" fill="none" xmlns="http://www.w3.org/2000/svg">
<path fill-rule="evenodd" clip-rule="evenodd" d="M205.563 83.8071C193.864 92.7237 186.318 106.774 186.318 122.58C186.318 139.566 195.033 154.524 208.251 163.263C209.661 164.261 212.508 166.345 212.615 166.689C218.997 172.508 223 180.874 223 190.172C223 207.75 208.693 222 191.044 222C182.346 222 174.46 218.539 168.698 212.925C166.902 211.175 165.46 209.105 164.058 207.028L163.042 205.522C153.881 194.107 139.716 185.997 123.447 185.997C108.242 185.997 93.1454 193.309 84.0684 205.408C83.8541 205.669 83.6399 205.932 83.4256 206.194C80.604 209.649 77.7528 213.141 74.1526 215.768C73.4827 216.256 72.6769 216.817 71.6543 217.506C66.9569 220.21 61.7715 222 55.9564 222C38.3074 222 24 207.75 24 190.172C24 179.924 28.8622 170.808 36.4141 164.986C36.4923 164.926 36.576 164.863 36.6643 164.799C37.4953 164.189 38.3495 163.609 39.2034 163.029C40.8733 161.894 42.5422 160.761 44.0343 159.407C54.0241 150.343 60.308 136.738 60.308 122.314C60.308 105.9 52.1709 91.3796 39.6952 82.5353L38.1062 81.4981C29.5962 75.7798 24 66.0879 24 55.0942C24 37.5159 38.3074 23.2659 55.9564 23.2659C62.9103 23.2659 69.3454 25.4781 74.591 29.2345C78.1815 31.8057 80.9342 35.3574 83.6419 38.851C83.7865 39.0376 83.931 39.224 84.0755 39.4101C93.0015 51.3951 107.313 59.1625 123.447 59.1625C138.19 59.1625 151.413 52.6754 160.394 42.4107C161.626 41.0022 162.728 39.4882 163.83 37.974C164.812 36.6235 165.795 35.2728 166.871 33.9966C167.092 33.7348 167.303 33.4948 167.497 33.2898C173.325 27.1191 181.599 23.2659 190.777 23.2659C208.426 23.2659 222.733 37.5159 222.733 55.0942C222.733 61.8449 220.623 68.1048 217.024 73.2552C215.843 74.9452 213.01 77.6705 212.546 78.1128C212.502 78.1551 212.459 78.1954 212.415 78.2376C210.495 80.0583 208.384 81.6626 206.276 83.2649C206.038 83.4456 205.8 83.6262 205.563 83.8071ZM123.447 147.441C137.233 147.441 148.408 136.31 148.408 122.58C148.408 108.849 137.233 97.7181 123.447 97.7181C109.661 97.7181 98.4848 108.849 98.4848 122.58C98.4848 136.31 109.661 147.441 123.447 147.441Z" fill="#800000"/>
<path d="M222.893 53.0468C222.893 69.6411 209.387 83.0935 192.726 83.0935C176.064 83.0935 162.558 69.6411 162.558 53.0468C162.558 36.4524 176.064 23 192.726 23C209.387 23 222.893 36.4524 222.893 53.0468Z" fill="#E31A37"/>
<path d="M84.3354 191.581C84.3354 208.175 70.8288 221.628 54.1677 221.628C37.5065 221.628 24 208.175 24 191.581C24 174.987 37.5065 161.534 54.1677 161.534C70.8288 161.534 84.3354 174.987 84.3354 191.581Z" fill="#E31A37"/>
<path fill-rule="evenodd" clip-rule="evenodd" d="M213.874 212.379C202.687 223.521 184.692 223.664 173.681 212.698C168.113 207.152 166.658 198.914 165.264 191.022C165.042 189.763 164.821 188.512 164.585 187.282C163.779 183.079 162.882 178.395 162.049 174.019C160.268 164.665 152.157 156.586 142.765 154.812C138.372 153.983 133.669 153.09 129.449 152.287C128.214 152.052 126.958 151.832 125.694 151.61C117.77 150.222 109.499 148.772 103.931 143.227L102.716 142.017C97.1485 136.472 95.6933 128.233 94.2995 120.342C94.077 119.083 93.856 117.831 93.6202 116.602C92.8139 112.398 91.9174 107.714 91.0843 103.339C89.3031 93.9842 81.1925 85.9061 71.8002 84.132C67.4071 83.3022 62.7042 82.4094 58.4837 81.6063C57.2492 81.3714 55.9933 81.1514 54.7286 80.9298C46.8054 79.5415 38.5337 78.0922 32.9659 72.5468C21.9554 61.5803 22.0988 43.6575 33.2862 32.5149C44.4736 21.3723 62.4687 21.2295 73.4792 32.1959C79.0469 37.7413 80.5021 45.9799 81.896 53.8713C82.1184 55.1309 82.3394 56.3819 82.5752 57.6114C83.3815 61.815 84.278 66.499 85.1111 70.8745C86.8923 80.2291 95.0029 88.3072 104.395 90.0813C108.788 90.9111 113.491 91.804 117.712 92.607C118.946 92.8419 120.202 93.0619 121.467 93.2835C129.39 94.6718 137.662 96.1212 143.229 101.667L144.444 102.876C150.012 108.422 151.467 116.66 152.861 124.552C153.083 125.811 153.304 127.062 153.54 128.292C154.346 132.495 155.243 137.179 156.076 141.555C157.857 150.909 165.968 158.987 175.36 160.762C179.753 161.591 184.456 162.484 188.677 163.287C189.911 163.522 191.167 163.742 192.431 163.964C200.354 165.352 208.627 166.801 214.194 172.347C225.205 183.313 225.062 201.236 213.874 212.379ZM129.908 125.664C129.908 124.452 130.586 123.362 131.541 122.614C134.508 120.292 136.414 116.686 136.414 112.635C136.414 105.63 130.713 99.9516 123.679 99.9516C116.646 99.9516 110.944 105.63 110.944 112.635C110.944 116.623 112.792 120.18 115.681 122.506C116.609 123.253 117.266 124.329 117.266 125.522V138.652C117.266 142.129 120.096 144.947 123.587 144.947C127.078 144.947 129.908 142.129 129.908 138.652V125.664Z" fill="#E31A37"/>
</svg>
