<svg width="128" height="81" viewBox="0 0 128 81" fill="none" xmlns="http://www.w3.org/2000/svg">
<path fill-rule="evenodd" clip-rule="evenodd" d="M81.5114 17.8986C79.0299 19.7899 77.4294 22.7701 77.4294 26.1227C77.4294 29.7256 79.2778 32.8985 82.0817 34.752C82.3807 34.9638 82.9845 35.4058 83.0072 35.4787C84.361 36.713 85.21 38.4876 85.21 40.4597C85.21 44.1882 82.1753 47.2108 78.4317 47.2108C76.5869 47.2108 74.9142 46.4768 73.692 45.2859C73.3111 44.9148 73.0051 44.4756 72.7079 44.035L72.4924 43.7156C70.5492 41.2944 67.5446 39.5742 64.0937 39.5742C60.8687 39.5742 57.6665 41.1252 55.7411 43.6914C55.6957 43.7469 55.6503 43.8026 55.6048 43.8582C55.0063 44.5911 54.4015 45.3316 53.6379 45.8889C53.4958 45.9926 53.3249 46.1115 53.108 46.2577C52.1116 46.8311 51.0117 47.2108 49.7783 47.2108C46.0347 47.2108 43 44.1882 43 40.4597C43 38.2861 44.0313 36.3524 45.6332 35.1176C45.6497 35.1049 45.6675 35.0915 45.6862 35.0778C45.8625 34.9484 46.0437 34.8254 46.2248 34.7023C46.579 34.4618 46.933 34.2213 47.2495 33.9342C49.3684 32.0117 50.7013 29.1257 50.7013 26.0663C50.7013 22.5848 48.9753 19.5048 46.3291 17.6288L45.9921 17.4088C44.187 16.1959 43 14.1402 43 11.8083C43 8.07971 46.0347 5.05713 49.7783 5.05713C51.2533 5.05713 52.6182 5.52636 53.7309 6.32313C54.4925 6.86851 55.0764 7.62188 55.6507 8.36291C55.6813 8.40248 55.712 8.44203 55.7426 8.4815C57.6359 11.0236 60.6716 12.6712 64.0937 12.6712C67.221 12.6712 70.0256 11.2952 71.9306 9.11796C72.192 8.81919 72.4257 8.49805 72.6594 8.17688C72.8678 7.89042 73.0763 7.60392 73.3045 7.33322C73.3513 7.2777 73.3961 7.22679 73.4372 7.18331C74.6735 5.87443 76.4284 5.05713 78.3751 5.05713C82.1186 5.05713 85.1534 8.07971 85.1534 11.8083C85.1534 13.2402 84.7058 14.568 83.9424 15.6604C83.6919 16.0189 83.091 16.5969 82.9926 16.6908C82.9832 16.6997 82.9742 16.7083 82.9647 16.7172C82.5575 17.1034 82.1098 17.4437 81.6626 17.7836C81.6121 17.8219 81.5617 17.8602 81.5114 17.8986ZM64.0937 31.3961C67.0178 31.3961 69.3883 29.0351 69.3883 26.1227C69.3883 23.2103 67.0178 20.8493 64.0937 20.8493C61.1695 20.8493 58.799 23.2103 58.799 26.1227C58.799 29.0351 61.1695 31.3961 64.0937 31.3961Z" fill="#F2F2F2"/>
<g filter="url(#filter0_dd_233_1831)">
<ellipse cx="78.7856" cy="11.3733" rx="6.39889" ry="6.37325" fill="white"/>
<ellipse cx="49.3989" cy="40.7585" rx="6.39889" ry="6.37325" fill="white"/>
<path fill-rule="evenodd" clip-rule="evenodd" d="M83.2763 45.1693C80.9033 47.5328 77.0864 47.5631 74.7509 45.237C73.57 44.0607 73.2613 42.3132 72.9656 40.6394C72.9185 40.3722 72.8716 40.1069 72.8216 39.8461C72.6506 38.9544 72.4604 37.9609 72.2837 37.0328C71.9059 35.0486 70.1855 33.3351 68.1933 32.9588C67.2615 32.7828 66.264 32.5934 65.3688 32.4231C65.1069 32.3733 64.8405 32.3266 64.5723 32.2796C62.8917 31.9851 61.1371 31.6777 59.9562 30.5015L59.6985 30.2449C58.5176 29.0687 58.2089 27.3212 57.9132 25.6473C57.8661 25.3801 57.8192 25.1148 57.7692 24.854C57.5981 23.9624 57.408 22.9688 57.2313 22.0407C56.8535 20.0565 55.1331 18.3431 53.1409 17.9668C52.2091 17.7908 51.2116 17.6014 50.3164 17.431C50.0545 17.3812 49.7881 17.3345 49.5199 17.2875C47.8393 16.9931 46.0847 16.6856 44.9038 15.5094C42.5683 13.1833 42.5987 9.38166 44.9717 7.01819C47.3447 4.65473 51.1616 4.62444 53.4971 6.95054C54.678 8.12678 54.9867 9.87428 55.2823 11.5481C55.3295 11.8153 55.3764 12.0807 55.4264 12.3414C55.5974 13.2331 55.7876 14.2266 55.9643 15.1547C56.3421 17.1389 58.0625 18.8524 60.0547 19.2287C60.9865 19.4047 61.984 19.5941 62.8792 19.7644C63.1411 19.8142 63.4075 19.8609 63.6757 19.9079C65.3563 20.2024 67.1108 20.5098 68.2918 21.686L68.5495 21.9426C69.7304 23.1188 70.0391 24.8663 70.3347 26.5402C70.3819 26.8074 70.4288 27.0727 70.4788 27.3335C70.6498 28.2251 70.84 29.2187 71.0167 30.1468C71.3945 32.131 73.1149 33.8444 75.1071 34.2207C76.0389 34.3967 77.0364 34.5861 77.9316 34.7565C78.1935 34.8063 78.4598 34.853 78.728 34.9C80.4086 35.1944 82.1633 35.5019 83.3442 36.6781C85.6797 39.0042 85.6493 42.8058 83.2763 45.1693ZM65.4662 27.5163C65.4662 26.8021 65.9035 26.1753 66.3263 25.5998C66.6532 25.1549 66.8462 24.6062 66.8462 24.0126C66.8462 22.5268 65.6369 21.3223 64.145 21.3223C62.6532 21.3223 61.4438 22.5268 61.4438 24.0126C61.4438 24.5979 61.6315 25.1396 61.9502 25.5812C62.3612 26.1507 62.7847 26.7696 62.7847 27.472V29.531C62.7847 30.2685 63.385 30.8664 64.1255 30.8664C64.8659 30.8664 65.4662 30.2685 65.4662 29.531V27.5163Z" fill="white"/>
</g>
<path d="M15.0121 65.5547L11.6747 66.1459C11.5351 65.7189 11.3135 65.3125 11.0097 64.9267C10.7141 64.5408 10.3118 64.2247 9.80281 63.9784C9.29379 63.7321 8.65751 63.6089 7.89397 63.6089C6.8513 63.6089 5.98103 63.8429 5.28317 64.3109C4.58532 64.7707 4.23639 65.3659 4.23639 66.0966C4.23639 66.7288 4.47038 67.2378 4.93835 67.6237C5.40633 68.0095 6.16165 68.3256 7.20433 68.5719L10.2092 69.2616C11.9497 69.6639 13.2469 70.2837 14.1008 71.1211C14.9546 71.9586 15.3816 73.0464 15.3816 74.3846C15.3816 75.5176 15.0531 76.5275 14.3963 77.4142C13.7477 78.2926 12.8405 78.9823 11.6747 79.4831C10.5171 79.9839 9.17474 80.2343 7.64767 80.2343C5.52948 80.2343 3.80126 79.7828 2.46302 78.8797C1.12478 77.9683 0.303772 76.6753 0 75.0004L3.55906 74.4585C3.78073 75.3863 4.23639 76.0882 4.92604 76.5644C5.61568 77.0324 6.51468 77.2664 7.62304 77.2664C8.82992 77.2664 9.7946 77.016 10.5171 76.5152C11.2396 76.0061 11.6008 75.3863 11.6008 74.6556C11.6008 74.0645 11.3791 73.5677 10.9358 73.1655C10.5007 72.7632 9.83155 72.4594 8.92844 72.2541L5.72652 71.5522C3.96135 71.1499 2.65596 70.5095 1.81032 69.631C0.972892 68.7525 0.554179 67.6401 0.554179 66.2936C0.554179 65.1771 0.866162 64.2001 1.49013 63.3626C2.11409 62.5252 2.97615 61.8725 4.0763 61.4045C5.17644 60.9284 6.43669 60.6903 7.85703 60.6903C9.90133 60.6903 11.5105 61.1336 12.6845 62.0203C13.8586 62.8988 14.6344 64.0769 15.0121 65.5547Z" fill="#F2F2F2"/>
<path d="M27.5827 80.2343C25.719 80.2343 24.114 79.8361 22.7675 79.0398C21.4293 78.2352 20.3948 77.1063 19.6641 75.6531C18.9416 74.1917 18.5804 72.4799 18.5804 70.5177C18.5804 68.5801 18.9416 66.8724 19.6641 65.3946C20.3948 63.9168 21.4129 62.7633 22.7183 61.9341C24.0319 61.1049 25.5672 60.6903 27.3241 60.6903C28.3914 60.6903 29.4259 60.8668 30.4275 61.2198C31.4291 61.5728 32.3281 62.127 33.1245 62.8824C33.9209 63.6377 34.549 64.6188 35.0087 65.8257C35.4685 67.0243 35.6984 68.4816 35.6984 70.1975V71.5029H20.6616V68.7443H32.0901C32.0901 67.7755 31.893 66.9176 31.4989 66.1705C31.1048 65.4152 30.5507 64.8199 29.8364 64.3848C29.1303 63.9497 28.3011 63.7321 27.3487 63.7321C26.3143 63.7321 25.4112 63.9866 24.6394 64.4956C23.8759 64.9964 23.2848 65.6532 22.866 66.466C22.4555 67.2706 22.2503 68.145 22.2503 69.0892V71.2443C22.2503 72.5087 22.472 73.5842 22.9153 74.4709C23.3669 75.3575 23.9949 76.0349 24.7995 76.5028C25.6041 76.9626 26.5442 77.1925 27.6197 77.1925C28.3175 77.1925 28.9538 77.094 29.5285 76.8969C30.1032 76.6917 30.5999 76.3879 31.0186 75.9856C31.4374 75.5833 31.7575 75.0866 31.9792 74.4955L35.4644 75.1236C35.1852 76.1498 34.6844 77.0488 33.9619 77.8206C33.2477 78.5841 32.3487 79.1793 31.2649 79.6062C30.1894 80.025 28.962 80.2343 27.5827 80.2343Z" fill="#F2F2F2"/>
<path d="M47.7518 80.2343C45.9209 80.2343 44.3446 79.8197 43.0228 78.9905C41.7092 78.1531 40.6993 76.9996 39.9933 75.53C39.2872 74.0604 38.9342 72.3773 38.9342 70.4808C38.9342 68.5596 39.2954 66.8642 40.0179 65.3946C40.7404 63.9168 41.7584 62.7633 43.072 61.9341C44.3856 61.1049 45.9332 60.6903 47.7148 60.6903C49.1516 60.6903 50.4324 60.9571 51.5571 61.4907C52.6819 62.0162 53.5891 62.7551 54.2788 63.7075C54.9766 64.6598 55.3912 65.7723 55.5226 67.0449H51.9389C51.7419 66.1582 51.2903 65.3946 50.5842 64.7542C49.8864 64.1139 48.9504 63.7937 47.7764 63.7937C46.7501 63.7937 45.8511 64.0646 45.0794 64.6065C44.3159 65.1401 43.7206 65.9037 43.2937 66.8971C42.8668 67.8823 42.6533 69.0481 42.6533 70.3946C42.6533 71.7738 42.8627 72.9643 43.2814 73.9659C43.7001 74.9676 44.2912 75.7434 45.0548 76.2935C45.8265 76.8436 46.7337 77.1186 47.7764 77.1186C48.4743 77.1186 49.1064 76.9913 49.6729 76.7368C50.2476 76.4741 50.7279 76.1006 51.1138 75.6162C51.5079 75.1318 51.7829 74.5489 51.9389 73.8674H55.5226C55.3912 75.0907 54.993 76.1827 54.328 77.1432C53.663 78.1038 52.7722 78.8591 51.6557 79.4092C50.5473 79.9593 49.246 80.2343 47.7518 80.2343Z" fill="#F2F2F2"/>
<path d="M71.4429 72.0078V60.9366H75.1375V79.8526H71.5168V76.5767H71.3198C70.8846 77.5866 70.1868 78.4281 69.2262 79.1013C68.2738 79.7663 67.0875 80.0989 65.6671 80.0989C64.4521 80.0989 63.3765 79.832 62.4406 79.2984C61.5129 78.7565 60.7822 77.956 60.2485 76.8969C59.7231 75.8378 59.4603 74.5283 59.4603 72.9684V60.9366H63.1426V72.5251C63.1426 73.814 63.4997 74.8403 64.214 75.6038C64.9282 76.3674 65.856 76.7491 66.9972 76.7491C67.6868 76.7491 68.3724 76.5767 69.0538 76.2319C69.7434 75.8871 70.314 75.3658 70.7656 74.6679C71.2254 73.97 71.4511 73.0834 71.4429 72.0078Z" fill="#F2F2F2"/>
<path d="M80.085 79.8526V60.9366H83.6441V63.9414H83.8411C84.186 62.9234 84.7935 62.1229 85.6638 61.54C86.5423 60.9489 87.5357 60.6533 88.644 60.6533C88.8739 60.6533 89.1448 60.6615 89.4568 60.678C89.777 60.6944 90.0274 60.7149 90.208 60.7395V64.2616C90.0603 64.2206 89.7975 64.1754 89.4199 64.1262C89.0422 64.0687 88.6646 64.04 88.2869 64.04C87.4166 64.04 86.6408 64.2247 85.9593 64.5942C85.2861 64.9554 84.7525 65.4603 84.3584 66.1089C83.9643 66.7493 83.7673 67.48 83.7673 68.301V79.8526H80.085Z" fill="#F2F2F2"/>
<path d="M115.537 60.9366L119.712 68.301L123.924 60.9366H127.951L122.052 70.3946L128 79.8526H123.973L119.712 72.7837L115.463 79.8526H111.424L117.31 70.3946L111.498 60.9366H115.537Z" fill="#F2F2F2"/>
<path fill-rule="evenodd" clip-rule="evenodd" d="M96.0546 79.0398C97.4011 79.8361 99.0062 80.2343 100.87 80.2343C102.249 80.2343 103.477 80.025 104.552 79.6062C105.636 79.1793 106.535 78.5841 107.249 77.8206C107.972 77.0488 108.472 76.1498 108.752 75.1236L105.266 74.4955C105.045 75.0866 104.724 75.5833 104.306 75.9856C103.887 76.3879 103.39 76.6917 102.816 76.8969C102.241 77.094 101.605 77.1925 100.907 77.1925C99.8313 77.1925 98.8912 76.9626 98.0866 76.5028C97.282 76.0349 96.654 75.3575 96.2024 74.4709C95.7896 73.6453 95.569 72.6559 95.5406 71.5029H108.985V70.1975C108.985 68.4816 108.756 67.0243 108.296 65.8257C107.836 64.6188 107.208 63.6377 106.412 62.8824C105.615 62.127 104.716 61.5728 103.715 61.2198C102.713 60.8668 101.679 60.6903 100.611 60.6903C98.8543 60.6903 97.319 61.1049 96.0054 61.9341C94.7 62.7633 93.6819 63.9168 92.9512 65.3946C92.2288 66.8724 91.8675 68.5801 91.8675 70.5177C91.8675 72.4799 92.2288 74.1917 92.9512 75.6531C93.6819 77.1063 94.7164 78.2352 96.0546 79.0398ZM95.5467 68.7443H105.377C105.377 67.7755 105.18 66.9176 104.786 66.1705C104.392 65.4152 103.838 64.8199 103.124 64.3848C102.417 63.9497 101.588 63.7321 100.636 63.7321C99.6014 63.7321 98.6983 63.9866 97.9265 64.4956C97.163 64.9964 96.5719 65.6532 96.1532 66.466C95.7931 67.1718 95.5909 67.9312 95.5467 68.7443ZM95.5374 69.0892V71.2443C95.5374 71.3233 95.5383 71.4016 95.54 71.4792C95.5402 71.4871 95.5404 71.495 95.5406 71.5029H93.9488V68.7443H95.5467C95.5405 68.8582 95.5374 68.9732 95.5374 69.0892Z" fill="#F2F2F2"/>
<path d="M93.9488 68.7443V71.5029H95.5406L95.54 71.4792C95.5383 71.4016 95.5374 71.3233 95.5374 71.2443V69.0892C95.5374 68.9732 95.5405 68.8582 95.5467 68.7443H93.9488Z" fill="#F2F2F2"/>
<defs>
<filter id="filter0_dd_233_1831" x="38.0008" y="0.715001" width="52.1819" height="52.1302" filterUnits="userSpaceOnUse" color-interpolation-filters="sRGB">
<feFlood flood-opacity="0" result="BackgroundImageFix"/>
<feColorMatrix in="SourceAlpha" type="matrix" values="0 0 0 0 0 0 0 0 0 0 0 0 0 0 0 0 0 0 127 0" result="hardAlpha"/>
<feOffset dy="0.714167"/>
<feGaussianBlur stdDeviation="2.49958"/>
<feComposite in2="hardAlpha" operator="out"/>
<feColorMatrix type="matrix" values="0 0 0 0 0.290196 0 0 0 0 0.227451 0 0 0 0 1 0 0 0 0.06 0"/>
<feBlend mode="normal" in2="BackgroundImageFix" result="effect1_dropShadow_233_1831"/>
<feColorMatrix in="SourceAlpha" type="matrix" values="0 0 0 0 0 0 0 0 0 0 0 0 0 0 0 0 0 0 127 0" result="hardAlpha"/>
<feOffset dy="0.328732"/>
<feGaussianBlur stdDeviation="0.657464"/>
<feComposite in2="hardAlpha" operator="out"/>
<feColorMatrix type="matrix" values="0 0 0 0 0.078875 0 0 0 0 0.0770833 0 0 0 0 0.166667 0 0 0 0.04 0"/>
<feBlend mode="normal" in2="effect1_dropShadow_233_1831" result="effect2_dropShadow_233_1831"/>
<feBlend mode="normal" in="SourceGraphic" in2="effect2_dropShadow_233_1831" result="shape"/>
</filter>
</defs>
</svg>
