<svg width="372" height="219" viewBox="0 0 372 219" fill="none" xmlns="http://www.w3.org/2000/svg">
<path fill-rule="evenodd" clip-rule="evenodd" d="M235.747 37.425C228.546 42.913 223.902 51.5606 223.902 61.2885C223.902 71.7428 229.266 80.9494 237.402 86.3276C238.269 86.9424 240.021 88.2247 240.087 88.4362C244.015 92.0178 246.479 97.1671 246.479 102.889C246.479 113.708 237.673 122.479 226.811 122.479C221.458 122.479 216.604 120.349 213.058 116.894C211.952 115.817 211.064 114.542 210.202 113.264L209.577 112.337C203.938 105.312 195.22 100.32 185.207 100.32C175.849 100.32 166.557 104.821 160.97 112.267C160.839 112.428 160.707 112.589 160.575 112.751C158.838 114.877 157.083 117.026 154.867 118.643C154.455 118.944 153.959 119.289 153.33 119.713C150.439 121.377 147.247 122.479 143.668 122.479C132.806 122.479 124 113.708 124 102.889C124 96.5825 126.993 90.9716 131.641 87.3887C131.689 87.3516 131.74 87.3129 131.795 87.273C132.306 86.8977 132.832 86.5406 133.357 86.1836C134.385 85.4855 135.412 84.7879 136.331 83.9546C142.479 78.3762 146.347 70.0023 146.347 61.1249C146.347 51.0228 141.338 42.0857 133.66 36.6423L132.682 36.0039C127.444 32.4845 124 26.5194 124 19.7531C124 8.93413 132.806 0.163654 143.668 0.163654C147.948 0.163654 151.909 1.52521 155.137 3.83715C157.347 5.41965 159.041 7.60565 160.708 9.75585C160.797 9.8707 160.886 9.98544 160.975 10.1C166.468 17.4764 175.277 22.257 185.207 22.257C194.281 22.257 202.419 18.2644 207.947 11.9468C208.705 11.0798 209.383 10.148 210.061 9.21606C210.666 8.38486 211.271 7.55354 211.933 6.76807C212.069 6.60696 212.199 6.45926 212.318 6.33309C215.905 2.53519 220.998 0.163654 226.646 0.163654C237.509 0.163654 246.315 8.93413 246.315 19.7531C246.315 23.908 245.016 27.7607 242.801 30.9307C242.074 31.9708 240.33 33.6481 240.045 33.9204C240.017 33.9464 239.991 33.9712 239.964 33.9972C238.782 35.1178 237.483 36.1052 236.185 37.0913C236.039 37.2025 235.893 37.3137 235.747 37.425ZM185.207 76.5902C193.691 76.5902 200.57 69.7394 200.57 61.2885C200.57 52.8376 193.691 45.9868 185.207 45.9868C176.722 45.9868 169.843 52.8376 169.843 61.2885C169.843 69.7394 176.722 76.5902 185.207 76.5902Z" fill="#800000"/>
<path d="M246.413 18.4929C246.413 28.7063 238.1 36.9859 227.846 36.9859C217.591 36.9859 209.278 28.7063 209.278 18.4929C209.278 8.27957 217.591 0 227.846 0C238.1 0 246.413 8.27957 246.413 18.4929Z" fill="#E31A37"/>
<path d="M161.135 103.757C161.135 113.97 152.822 122.25 142.567 122.25C132.313 122.25 124 113.97 124 103.757C124 93.5434 132.313 85.2639 142.567 85.2639C152.822 85.2639 161.135 93.5434 161.135 103.757Z" fill="#E31A37"/>
<path fill-rule="evenodd" clip-rule="evenodd" d="M240.862 116.557C233.977 123.415 222.901 123.503 216.124 116.754C212.698 113.341 211.802 108.27 210.944 103.413C210.807 102.638 210.671 101.868 210.526 101.111C210.03 98.5239 209.478 95.641 208.965 92.948C207.869 87.1905 202.877 82.2186 197.097 81.1267C194.393 80.616 191.498 80.0665 188.901 79.5722C188.141 79.4277 187.368 79.2922 186.589 79.1559C181.713 78.3014 176.622 77.4094 173.195 73.9963L172.448 73.2519C169.021 69.8388 168.125 64.7682 167.267 59.9113C167.13 59.1361 166.994 58.366 166.849 57.6093C166.353 55.0222 165.801 52.1393 165.288 49.4463C164.192 43.6888 159.2 38.7169 153.42 37.625C150.716 37.1143 147.821 36.5648 145.224 36.0705C144.464 35.926 143.691 35.7905 142.913 35.6541C138.036 34.7997 132.945 33.9077 129.518 30.4946C122.742 23.7451 122.83 12.7141 129.715 5.85613C136.601 -1.00181 147.676 -1.08971 154.453 5.65982C157.88 9.07285 158.775 14.1435 159.633 19.0004C159.77 19.7756 159.906 20.5456 160.051 21.3023C160.548 23.8895 161.099 26.7724 161.612 29.4654C162.708 35.2229 167.7 40.1947 173.481 41.2866C176.185 41.7974 179.079 42.3469 181.677 42.8411C182.437 42.9857 183.21 43.1211 183.988 43.2575C188.864 44.112 193.956 45.004 197.382 48.417L198.13 49.1615C201.557 52.5746 202.452 57.6452 203.31 62.5021C203.447 63.2773 203.583 64.0473 203.728 64.804C204.225 67.3912 204.776 70.2741 205.289 72.9671C206.385 78.7246 211.377 83.6964 217.158 84.7883C219.862 85.2991 222.756 85.8486 225.354 86.3428C226.113 86.4874 226.886 86.6228 227.665 86.7592C232.541 87.6136 237.632 88.5057 241.059 91.9187C247.836 98.6683 247.748 109.699 240.862 116.557ZM189.183 63.9418C189.183 62.7296 189.881 61.652 190.76 60.8168C192.256 59.3952 193.188 57.39 193.188 55.168C193.188 50.8566 189.679 47.3615 185.35 47.3615C181.021 47.3615 177.512 50.8566 177.512 55.168C177.512 57.3565 178.416 59.3347 179.873 60.7521C180.727 61.5837 181.403 62.6474 181.403 63.8398V71.1804C181.403 73.3204 183.144 75.0552 185.293 75.0552C187.442 75.0552 189.183 73.3204 189.183 71.1804V63.9418Z" fill="#E31A37"/>
<path d="M43.5605 175.712L33.8764 177.427C33.4714 176.188 32.8282 175.009 31.9467 173.889C31.0891 172.769 29.9218 171.852 28.4447 171.138C26.9677 170.423 25.1214 170.066 22.9059 170.066C19.8804 170.066 17.3551 170.745 15.3301 172.102C13.3052 173.437 12.2927 175.164 12.2927 177.284C12.2927 179.118 12.9717 180.595 14.3296 181.715C15.6875 182.835 17.8792 183.752 20.9047 184.467L29.624 186.468C34.6745 187.635 38.4385 189.434 40.9161 191.864C43.3937 194.294 44.6325 197.45 44.6325 201.333C44.6325 204.621 43.6796 207.551 41.7738 210.124C39.8917 212.673 37.2593 214.674 33.8764 216.127C30.5174 217.581 26.6223 218.307 22.1912 218.307C16.0448 218.307 11.0301 216.997 7.14692 214.376C3.26376 211.732 0.881454 207.98 0 203.12L10.3273 201.548C10.9705 204.24 12.2927 206.277 14.2938 207.658C16.295 209.016 18.9036 209.695 22.1197 209.695C25.6217 209.695 28.4209 208.969 30.5174 207.515C32.6138 206.038 33.662 204.24 33.662 202.12C33.662 200.404 33.0188 198.963 31.7323 197.796C30.4697 196.628 28.5281 195.747 25.9076 195.151L16.6166 193.114C11.4946 191.947 7.70676 190.089 5.25299 187.54C2.82303 184.991 1.60806 181.763 1.60806 177.856C1.60806 174.616 2.51333 171.781 4.32389 169.351C6.13444 166.921 8.63586 165.027 11.8282 163.669C15.0204 162.287 18.6773 161.596 22.7987 161.596C28.7306 161.596 33.3999 162.883 36.8066 165.456C40.2133 168.005 42.4646 171.423 43.5605 175.712Z" fill="#800000"/>
<path d="M80.0366 218.307C74.6287 218.307 69.9713 217.152 66.0644 214.841C62.1812 212.506 59.1795 209.231 57.0592 205.014C54.9628 200.773 53.9146 195.806 53.9146 190.113C53.9146 184.49 54.9628 179.535 57.0592 175.247C59.1795 170.959 62.1335 167.612 65.9214 165.206C69.7331 162.8 74.188 161.596 79.2862 161.596C82.3832 161.596 85.3849 162.109 88.2913 163.133C91.1977 164.157 93.8063 165.766 96.1171 167.957C98.428 170.149 100.25 172.996 101.585 176.498C102.919 179.976 103.586 184.205 103.586 189.184V192.971H59.9537V184.967H93.1155C93.1155 182.156 92.5437 179.666 91.4002 177.498C90.2567 175.307 88.6486 173.579 86.576 172.317C84.5272 171.054 82.1211 170.423 79.3576 170.423C76.3559 170.423 73.7354 171.161 71.496 172.638C69.2805 174.092 67.5652 175.998 66.3502 178.356C65.1591 180.691 64.5635 183.228 64.5635 185.967V192.221C64.5635 195.89 65.2067 199.011 66.4932 201.583C67.8034 204.156 69.6259 206.122 71.9606 207.48C74.2952 208.814 77.023 209.481 80.1438 209.481C82.1687 209.481 84.015 209.195 85.6826 208.623C87.3503 208.028 88.7916 207.146 90.0065 205.979C91.2215 204.812 92.1506 203.37 92.7938 201.655L102.907 203.477C102.097 206.455 100.644 209.064 98.5471 211.303C96.4745 213.519 93.8659 215.246 90.7212 216.485C87.6004 217.7 84.0389 218.307 80.0366 218.307Z" fill="#800000"/>
<path d="M138.561 218.307C133.248 218.307 128.674 217.104 124.839 214.698C121.027 212.268 118.097 208.921 116.048 204.657C113.999 200.392 112.975 195.509 112.975 190.005C112.975 184.431 114.023 179.511 116.12 175.247C118.216 170.959 121.17 167.612 124.982 165.206C128.793 162.8 133.284 161.596 138.454 161.596C142.623 161.596 146.339 162.371 149.603 163.919C152.867 165.444 155.499 167.588 157.5 170.351C159.525 173.115 160.728 176.343 161.109 180.036H150.711C150.139 177.463 148.829 175.247 146.78 173.389C144.755 171.531 142.039 170.602 138.632 170.602C135.655 170.602 133.046 171.388 130.807 172.96C128.591 174.509 126.864 176.724 125.625 179.607C124.386 182.465 123.767 185.848 123.767 189.755C123.767 193.758 124.374 197.212 125.589 200.118C126.804 203.025 128.52 205.276 130.735 206.872C132.974 208.468 135.607 209.266 138.632 209.266C140.657 209.266 142.492 208.897 144.136 208.159C145.803 207.396 147.197 206.312 148.316 204.907C149.46 203.501 150.258 201.81 150.711 199.832H161.109C160.728 203.382 159.573 206.551 157.643 209.338C155.714 212.125 153.129 214.317 149.889 215.913C146.673 217.509 142.897 218.307 138.561 218.307Z" fill="#800000"/>
<path d="M207.305 194.437V162.311H218.026V217.2H207.52V207.694H206.948C205.685 210.624 203.66 213.066 200.873 215.02C198.11 216.949 194.667 217.914 190.546 217.914C187.02 217.914 183.899 217.14 181.183 215.591C178.491 214.019 176.371 211.696 174.823 208.623C173.298 205.55 172.536 201.75 172.536 197.224V162.311H183.22V195.937C183.22 199.678 184.257 202.656 186.329 204.871C188.402 207.087 191.094 208.194 194.405 208.194C196.406 208.194 198.396 207.694 200.373 206.694C202.374 205.693 204.03 204.18 205.34 202.155C206.674 200.13 207.329 197.557 207.305 194.437Z" fill="#800000"/>
<path d="M232.382 217.2V162.311H242.709V171.03H243.281C244.282 168.076 246.045 165.754 248.57 164.062C251.119 162.347 254.002 161.489 257.218 161.489C257.885 161.489 258.671 161.513 259.576 161.561C260.505 161.608 261.232 161.668 261.756 161.739V171.959C261.327 171.84 260.565 171.709 259.469 171.566C258.373 171.4 257.277 171.316 256.181 171.316C253.656 171.316 251.405 171.852 249.428 172.924C247.474 173.973 245.926 175.438 244.782 177.32C243.639 179.178 243.067 181.298 243.067 183.68V217.2H232.382Z" fill="#800000"/>
<path d="M335.253 162.311L347.367 183.68L359.588 162.311H371.274L354.157 189.755L371.417 217.2H359.731L347.367 196.688L335.039 217.2H323.318L340.399 189.755L323.532 162.311H335.253Z" fill="#800000"/>
<path fill-rule="evenodd" clip-rule="evenodd" d="M278.721 214.841C282.628 217.152 287.285 218.307 292.693 218.307C296.695 218.307 300.257 217.7 303.378 216.485C306.523 215.246 309.131 213.519 311.204 211.303C313.3 209.064 314.753 206.455 315.563 203.477L305.45 201.655C304.807 203.37 303.878 204.812 302.663 205.979C301.448 207.146 300.007 208.028 298.339 208.623C296.672 209.195 294.825 209.481 292.8 209.481C289.68 209.481 286.952 208.814 284.617 207.48C282.283 206.122 280.46 204.156 279.15 201.583C277.952 199.188 277.312 196.317 277.229 192.971H316.242V189.184C316.242 184.205 315.575 179.976 314.241 176.498C312.907 172.996 311.085 170.149 308.774 167.957C306.463 165.766 303.854 164.157 300.948 163.133C298.042 162.109 295.04 161.596 291.943 161.596C286.845 161.596 282.39 162.8 278.578 165.206C274.79 167.612 271.836 170.959 269.716 175.247C267.619 179.535 266.571 184.49 266.571 190.113C266.571 195.806 267.619 200.773 269.716 205.014C271.836 209.231 274.838 212.506 278.721 214.841ZM277.247 184.967H305.772C305.772 182.156 305.2 179.666 304.057 177.498C302.913 175.307 301.305 173.579 299.233 172.317C297.184 171.054 294.778 170.423 292.014 170.423C289.013 170.423 286.392 171.161 284.153 172.638C281.937 174.092 280.222 175.998 279.007 178.356C277.962 180.404 277.375 182.607 277.247 184.967ZM277.22 185.967V192.221C277.22 192.45 277.223 192.677 277.228 192.902C277.228 192.925 277.229 192.948 277.229 192.971H272.61V184.967H277.247C277.229 185.297 277.22 185.631 277.22 185.967Z" fill="#800000"/>
<path d="M272.61 184.967V192.971H277.229L277.228 192.902C277.223 192.677 277.22 192.45 277.22 192.221V185.967C277.22 185.631 277.229 185.297 277.247 184.967H272.61Z" fill="#800000"/>
</svg>
